<?xml version="1.0" encoding="UTF-8"?>
<svg width="400px" height="490px" viewBox="0 0 400 490" version="1.1" xmlns="http://www.w3.org/2000/svg" xmlns:xlink="http://www.w3.org/1999/xlink">
    <!-- Generator: Sketch 42 (36781) - http://www.bohemiancoding.com/sketch -->
    <title>Drink_Iced_HavingHere</title>
    <desc>Created with Sketch.</desc>
    <defs>
        <path d="M343.854341,110.726797 L335.670383,197.203954 C327.611638,282.358018 319.552894,367.512083 311.49415,452.666147 C311.49415,463.807998 259.924318,489.678613 199.955688,489.47152 C139.065475,489.261245 88.4172267,463.807998 88.4172267,452.666147 C88.4172267,452.666147 74.0707653,301.071871 64.1655692,196.406966 C61.4438178,167.647125 58.7220663,138.887285 56.0003149,110.127445 C55.652106,106.448038 344.221457,106.847606 343.854341,110.726797 Z" id="path-1"></path>
        <mask id="mask-2" maskContentUnits="userSpaceOnUse" maskUnits="objectBoundingBox" x="0" y="0" width="287.854691" height="381.892465" fill="white">
            <use xlink:href="#path-1"></use>
        </mask>
        <ellipse id="path-3" cx="199.927345" cy="110.580292" rx="143.927345" ry="25"></ellipse>
        <mask id="mask-4" maskContentUnits="userSpaceOnUse" maskUnits="objectBoundingBox" x="0" y="0" width="287.854691" height="50" fill="white">
            <use xlink:href="#path-3"></use>
        </mask>
        <rect id="path-5" x="285.353518" y="-1" width="18" height="450"></rect>
        <mask id="mask-6" maskContentUnits="userSpaceOnUse" maskUnits="objectBoundingBox" x="0" y="0" width="18" height="450" fill="white">
            <use xlink:href="#path-5"></use>
        </mask>
    </defs>
    <g id="Assets-For-Sher-Minn" stroke="none" stroke-width="1" fill="none" fill-rule="evenodd">
        <g id="Drink_Iced_HavingHere">
            <use id="Cup_Takeaway_Body" stroke="#A9DBD6" mask="url(#mask-2)" stroke-width="10" fill="#85C0BA" xlink:href="#path-1"></use>
            <use id="Cup_Takeaway_Mouth" stroke="#A9DBD6" mask="url(#mask-4)" stroke-width="10" fill="#85C0BA" xlink:href="#path-3"></use>
            <use id="Straw" stroke="#B6E6D9" mask="url(#mask-6)" stroke-width="2" fill-opacity="0.5" fill="#FFFFFF" transform="translate(294.353518, 224.000000) rotate(7.000000) translate(-294.353518, -224.000000) " xlink:href="#path-5"></use>
        </g>
    </g>
</svg>