<?xml version="1.0" encoding="UTF-8"?>
<svg width="167px" height="175px" viewBox="0 0 167 175" version="1.1" xmlns="http://www.w3.org/2000/svg" xmlns:xlink="http://www.w3.org/1999/xlink">
    <!-- Generator: Sketch 42 (36781) - http://www.bohemiancoding.com/sketch -->
    <title>hot-steam</title>
    <desc>Created with Sketch.</desc>
    <defs></defs>
    <g id="Assets-For-Sher-Minn" stroke="none" stroke-width="1" fill="none" fill-rule="evenodd">
        <g id="hot-steam" fill="#E8781A">
            <g id="Group-8">
                <path d="M105.92193,0.207091425 C90.9826429,4.81663668 91.248966,13.0342977 94.4952289,20.3198209 C98.2813359,29.0901654 106.037097,37.5124018 112.929107,45.8389497 C123.254526,58.3015499 139.118747,73.4797233 128.113124,86.8579632 C116.434495,101.039656 82.6438502,109.98818 79.2716238,125.730585 C75.2983708,143.244877 101.236083,158.647424 112.529623,174.571307 C112.292091,174.62905 112.05456,174.670295 111.80983,174.728038 C89.1147821,158.772808 57.9333839,143.418106 60.409469,123.034809 C61.5683345,113.512155 72.6567334,105.607957 84.8356175,98.2135466 C94.0957442,92.6075213 104.144043,87.0410912 107.804187,80.0591314 C110.643767,74.7929652 104.773862,67.0537466 101.473614,61.616001 C96.7049909,53.7744947 91.4145182,46.0105291 87.3476923,38.0865327 C83.5291946,30.6871732 80.3225204,22.8357681 82.1399957,15.2070862 C83.0505328,11.4224417 85.34667,7.59490232 90.511179,4.54111984 C92.8756964,3.14208821 102.197005,-0.962617803 105.92193,0.207091425 C98.6124403,2.46237001 105.92193,0.207091425 105.92193,0.207091425" id="Fill-29"></path>
                <path d="M153.979028,66.1004215 C146.734762,68.3356536 146.863905,72.3205109 148.438063,75.8533617 C150.273999,80.1062229 154.034874,84.1902816 157.376905,88.2279396 C162.383844,94.2712265 170.076623,101.631332 164.739845,108.118626 C159.076716,114.995525 142.691166,119.334787 141.055927,126.968497 C139.129242,135.461419 151.706796,142.930326 157.18319,150.652037 C157.068007,150.680038 156.952825,150.700038 156.834152,150.728038 C145.82901,142.991127 130.70872,135.54542 131.909408,125.661278 C132.471357,121.043611 137.848275,117.210756 143.753984,113.625105 C148.244348,110.906666 153.116907,108.207427 154.891761,104.821778 C156.268712,102.268142 153.422314,98.5152876 151.821979,95.8784496 C149.509607,92.075995 146.944184,88.3111408 144.972124,84.4686856 C143.120482,80.880634 141.565521,77.0733793 142.44684,73.3741261 C142.888372,71.5388997 144.001801,69.682873 146.506142,68.2020517 C147.65273,67.523642 152.172761,65.5332133 153.979028,66.1004215 C150.434556,67.1940372 153.979028,66.1004215 153.979028,66.1004215" id="Fill-29-Copy"></path>
                <path d="M8.01343311,133.652767 C2.56625578,135.449639 7.63099151,140.231872 9.31187466,142.449534 C11.1183009,144.835167 13.8848998,147.722977 11.8273872,150.267344 C9.60132134,153.025281 3.59849937,154.744806 3.27766691,157.894095 C2.94869738,161.113805 7.20321489,163.94043 9.17819446,166.877881 C7.19740271,166.099794 5.30611856,164.274061 3.84958565,163.144449 C2.13382941,161.790301 0.637773668,160.337449 0.166986895,158.739716 C-0.939652631,155.178295 3.69265673,153.23481 7.02768698,150.453785 C10.2336868,147.790511 6.63013371,144.522316 5.21428608,141.808825 C4.37268207,140.191467 3.55897653,138.490989 3.77867703,136.806674 C3.91700697,135.74806 5.2119612,133.510772 8.01343311,133.652767 C6.7254535,134.079329 8.01343311,133.652767 8.01343311,133.652767" id="Fill-30-Copy-2"></path>
                <path d="M50.3016121,93.0159243 C38.3038576,97.4497671 49.4740925,109.250084 53.1761542,114.722241 C57.1651578,120.608869 63.2524234,127.734637 58.72028,134.012947 C53.8064014,140.818248 40.5814582,145.061235 39.8820376,152.83221 C39.1441872,160.77695 48.5364076,167.751742 52.8866504,175 C48.5107878,173.080045 44.3526935,168.574987 41.1297221,165.787634 C37.3559248,162.446228 34.0612179,158.861268 33.0133679,154.918808 C30.5794865,146.130883 40.7838547,141.335268 48.1444246,134.472996 C55.1949948,127.90128 47.2605413,119.836899 44.1400491,113.141269 C42.2877372,109.150384 40.4994749,104.954399 40.9785652,100.798294 C41.2860029,98.1861297 44.1272392,92.6655467 50.3016121,93.0159243 C47.4654998,94.0684813 50.3016121,93.0159243 50.3016121,93.0159243" id="Fill-31" transform="translate(46.486804, 134.000000) scale(-1, 1) translate(-46.486804, -134.000000) "></path>
            </g>
        </g>
    </g>
</svg>